<?xml version="1.0" encoding="UTF-8"?>
<svg id="Layer_1" data-name="Layer 1" xmlns="http://www.w3.org/2000/svg" viewBox="0 0 64 64">
  <rect width="64" height="64" stroke-width="0"/>
  <g>
    <path d="m7.71,13.75c.36,2.92.52,4.87.52,9.04v2.64h8.35v-2.64c0-4.17.16-6.12.49-9.04H7.71Zm.52,33.03c0,4.83-.81,6.12-4.21,7.7l.2.61c5.71-.36,12.36-1.94,12.36-10.29v-12.91h-8.35v14.89Z" fill="#fff" stroke-width="0"/>
    <path d="m50.93,31.89c-.47,7.72-3.83,14.12-10.68,14.12s-10.26-6.4-10.72-14.12h-8.96c.94,9.66,9.09,15.1,19.68,15.1s18.68-5.44,19.63-15.1h-8.95Zm-10.68-17.97c6.05,0,9.38,5.02,10.39,11.51h8.78c-2.06-8.01-9.66-12.49-19.17-12.49s-17.17,4.48-19.22,12.49h8.78c1-6.49,4.31-11.51,10.44-11.51Z" fill="#fff" stroke-width="0"/>
  </g>
</svg>